# xmcd
#
# Track frame offsets:
#	150
#	15506
#	29284
#	45285
#	59990
#	75500
#	90797
#	105875
#	120998
#	133669
#	147075
#	163243
#
# Disc length: 2345 seconds
#
# Revision: 0
# Processed by: cddbd v1.5.2PL0 Copyright (c) Steve Scherf et al.
# Submitted via: audiograbber 1.83.01
#
DISCID=8809270c
DTITLE=Truck Stop  - Willkommen in der Familie  2007  
DYEAR=2007
DGENRE=Country
TTITLE0=Das analoge Mädchen
TTITLE1=Sattel nicht gleich die Pferde
TTITLE2=Trac Ich bin dein Mannk  
TTITLE3=Keine Zeit
TTITLE4=Einfache Cowboys
TTITLE5=Willkommen in der Familie
TTITLE6=All das mag ich - dich brauch ich
TTITLE7=Der Lack ist ab
TTITLE8=Männer
TTITLE9=Ich bin Cowboy
TTITLE10=Spuren deiner Liebe
TTITLE11=Country Music
EXTD=
EXTT0=
EXTT1=
EXTT2=
EXTT3=
EXTT4=
EXTT5=
EXTT6=
EXTT7=
EXTT8=
EXTT9=
EXTT10=
EXTT11=
PLAYORDER=
